<?xml version="1.0" standalone="no"?>
<!DOCTYPE svg PUBLIC "-//W3C//DTD SVG 20010904//EN"
 "http://www.w3.org/TR/2001/REC-SVG-20010904/DTD/svg10.dtd">
<svg version="1.0" xmlns="http://www.w3.org/2000/svg"
 width="200.000000pt" height="200.000000pt" viewBox="0 0 200.000000 200.000000"
 preserveAspectRatio="xMidYMid meet">
<metadata>
Created by potrace 1.11, written by Peter Selinger 2001-2013
</metadata>
<g transform="translate(0.000000,200.000000) scale(0.100000,-0.100000)"
fill="#000000" stroke="none">
<path d="M525 1961 c-50 -22 -109 -86 -125 -136 -11 -32 -15 -36 -36 -31 -61
16 -162 -44 -190 -111 -10 -23 -14 -85 -14 -217 0 -178 1 -186 22 -206 29 -27
96 -27 131 0 l26 21 3 -553 c3 -498 5 -556 20 -584 24 -44 82 -92 120 -99 18
-3 220 -5 449 -3 l415 3 37 25 c63 43 81 89 85 216 l4 112 133 4 c121 3 135 6
169 28 64 44 66 53 66 387 0 280 -1 300 -20 331 -38 62 -69 72 -217 72 l-133
0 -2 158 c-3 316 -3 313 -60 377 -64 73 -168 95 -257 55 l-44 -21 -30 37 c-34
41 -117 84 -162 84 -17 0 -45 -4 -64 -10 -31 -8 -37 -6 -69 22 -20 17 -50 37
-68 44 -47 20 -141 17 -189 -5z m1129 -892 c42 -20 47 -50 44 -273 -4 -254 1
-246 -139 -246 l-89 0 0 265 0 265 80 0 c43 0 90 -5 104 -11z"/>
</g>
</svg>
